<svg width="331" height="71" viewBox="0 0 331 71" fill="none" xmlns="http://www.w3.org/2000/svg">
<path d="M0.0400004 53.848V25.752C0.0400004 22.2533 1.256 19.6933 3.688 18.072C6.16267 16.4507 9.576 15.64 13.928 15.64C18.28 15.64 21.608 16.7707 23.912 19.032C26.1733 16.7707 29.48 15.64 33.832 15.64C43.1333 15.64 47.784 19.0107 47.784 25.752V53.848C47.784 54.8293 46.9307 55.32 45.224 55.32C43.5173 55.32 42.664 54.8293 42.664 53.848V25.112C42.664 21.784 39.9547 20.12 34.536 20.12C29.16 20.12 26.472 21.8267 26.472 25.24V53.848C26.472 54.8293 25.6187 55.32 23.912 55.32C22.2053 55.32 21.352 54.8293 21.352 53.848V25.112C21.352 21.784 18.6427 20.12 13.224 20.12C7.848 20.12 5.16 21.784 5.16 25.112V53.848C5.16 54.8293 4.30667 55.32 2.6 55.32C0.893334 55.32 0.0400004 54.8293 0.0400004 53.848ZM89.2445 25.624V27.544C89.2445 31.1707 88.4978 33.6667 87.0045 35.032C85.5112 36.3973 82.7805 37.272 78.8125 37.656L66.3325 38.872V46.488C66.3325 49.816 69.1058 51.48 74.6525 51.48C80.9672 51.48 84.1245 50.0293 84.1245 47.128V44.696C84.1245 43.7147 84.9778 43.224 86.6845 43.224C88.3912 43.224 89.2445 43.7147 89.2445 44.696V46.488C89.2445 52.8027 84.5512 55.96 75.1645 55.96C71.0258 55.96 67.6552 55.1493 65.0525 53.528C62.4925 51.9067 61.2125 49.3467 61.2125 45.848V25.752C61.2125 22.2107 62.5778 19.6507 65.3085 18.072C68.0392 16.4507 71.6018 15.64 75.9965 15.64C80.3912 15.64 83.6978 16.408 85.9165 17.944C88.1352 19.48 89.2445 22.04 89.2445 25.624ZM66.3325 25.112V34.392L78.3645 33.176C80.7965 32.92 82.3538 32.408 83.0365 31.64C83.7618 30.872 84.1245 29.5067 84.1245 27.544V25.112C84.1245 21.784 81.1592 20.12 75.2285 20.12C69.2978 20.12 66.3325 21.784 66.3325 25.112ZM118.857 55H111.369C107.614 55 104.905 54.232 103.241 52.696C101.577 51.16 100.745 48.5573 100.745 44.888V44.376C100.745 40.7493 101.492 38.2533 102.985 36.888C104.478 35.5227 107.145 34.648 110.985 34.264L122.057 33.176V26.072C122.057 22.744 119.156 21.08 113.353 21.08H104.585C103.732 21.08 103.305 20.3333 103.305 18.84C103.305 17.3467 103.732 16.6 104.585 16.6H113.353C117.534 16.6 120.884 17.4107 123.401 19.032C125.918 20.6107 127.177 23.1707 127.177 26.712V45.592C127.177 48.3653 127.668 50.5627 128.649 52.184C128.948 52.696 129.097 53.016 129.097 53.144C129.097 53.656 128.692 54.2107 127.881 54.808C127.07 55.3627 126.388 55.64 125.833 55.64C124.894 55.64 124.02 54.7653 123.209 53.016C122.441 51.224 122.057 48.9627 122.057 46.232V37.656L111.369 38.744C109.065 39 107.572 39.512 106.889 40.28C106.206 41.048 105.865 42.4133 105.865 44.376V44.888C105.865 46.936 106.206 48.3867 106.889 49.24C107.614 50.0933 109.108 50.52 111.369 50.52H118.857C119.71 50.52 120.137 51.2667 120.137 52.76C120.137 54.2533 119.71 55 118.857 55ZM146.348 5.272V47.512C146.348 48.8773 146.668 50.1573 147.308 51.352C147.948 52.504 148.268 53.1013 148.268 53.144C148.268 53.656 147.862 54.2107 147.052 54.808C146.241 55.3627 145.558 55.64 145.004 55.64C144.108 55.64 143.254 54.872 142.444 53.336C141.633 51.7573 141.228 50.0293 141.228 48.152V5.272C141.228 4.29067 142.081 3.8 143.788 3.8C145.494 3.8 146.348 4.29067 146.348 5.272ZM188.127 17.752V45.848C188.127 49.3893 186.847 51.9707 184.287 53.592C181.77 55.1707 178.42 55.96 174.239 55.96C170.058 55.96 166.708 55.1707 164.191 53.592C161.674 51.9707 160.415 49.3893 160.415 45.848V17.752C160.415 16.7707 161.268 16.28 162.975 16.28C164.682 16.28 165.535 16.7707 165.535 17.752V46.488C165.535 49.816 168.436 51.48 174.239 51.48C180.084 51.48 183.007 49.816 183.007 46.488V17.752C183.007 16.7707 183.86 16.28 185.567 16.28C187.274 16.28 188.127 16.7707 188.127 17.752ZM229.3 26.712V47.32C229.3 48.3013 228.446 48.792 226.74 48.792C225.033 48.792 224.18 48.3013 224.18 47.32V26.072C224.18 22.9147 221.513 21.2507 216.18 21.08H215.476C209.63 21.08 206.708 22.744 206.708 26.072V43.736C206.708 46.2107 207.07 47.96 207.796 48.984C208.564 50.008 209.865 50.52 211.7 50.52H216.756C220.809 50.52 223.902 51.3093 226.036 52.888C228.212 54.4667 229.3 57.048 229.3 60.632V60.888C229.3 64.472 228.212 67.0533 226.036 68.632C223.902 70.2107 220.809 71 216.756 71H202.228C201.374 71 200.948 70.2533 200.948 68.76C200.948 67.2667 201.374 66.52 202.228 66.52H216.756C219.273 66.52 221.129 66.136 222.324 65.368C223.561 64.6 224.18 63.32 224.18 61.528V59.992C224.18 58.2 223.561 56.92 222.324 56.152C221.129 55.384 219.273 55 216.756 55H211.7C208.03 55 205.428 54.1253 203.892 52.376C202.356 50.584 201.588 47.704 201.588 43.736V26.712C201.588 23.1707 202.846 20.6107 205.364 19.032C207.924 17.4107 211.294 16.6 215.476 16.6H224.436C227.209 16.6 229.406 16.1307 231.028 15.192C231.54 14.8507 231.86 14.68 231.988 14.68C232.5 14.68 233.033 15.0853 233.588 15.896C234.185 16.7067 234.484 17.3893 234.484 17.944C234.484 18.712 233.844 19.3733 232.564 19.928C231.326 20.4827 229.662 20.8453 227.572 21.016C228.724 22.5947 229.3 24.4933 229.3 26.712ZM259.545 55H252.057C248.302 55 245.593 54.232 243.929 52.696C242.265 51.16 241.433 48.5573 241.433 44.888V44.376C241.433 40.7493 242.179 38.2533 243.673 36.888C245.166 35.5227 247.833 34.648 251.673 34.264L262.745 33.176V26.072C262.745 22.744 259.843 21.08 254.041 21.08H245.273C244.419 21.08 243.993 20.3333 243.993 18.84C243.993 17.3467 244.419 16.6 245.273 16.6H254.041C258.222 16.6 261.571 17.4107 264.089 19.032C266.606 20.6107 267.865 23.1707 267.865 26.712V45.592C267.865 48.3653 268.355 50.5627 269.337 52.184C269.635 52.696 269.785 53.016 269.785 53.144C269.785 53.656 269.379 54.2107 268.569 54.808C267.758 55.3627 267.075 55.64 266.521 55.64C265.582 55.64 264.707 54.7653 263.897 53.016C263.129 51.224 262.745 48.9627 262.745 46.232V37.656L252.057 38.744C249.753 39 248.259 39.512 247.577 40.28C246.894 41.048 246.553 42.4133 246.553 44.376V44.888C246.553 46.936 246.894 48.3867 247.577 49.24C248.302 50.0933 249.795 50.52 252.057 50.52H259.545C260.398 50.52 260.825 51.2667 260.825 52.76C260.825 54.2533 260.398 55 259.545 55ZM298.107 55H290.619C286.864 55 284.155 54.232 282.491 52.696C280.827 51.16 279.995 48.5573 279.995 44.888V44.376C279.995 40.7493 280.742 38.2533 282.235 36.888C283.728 35.5227 286.395 34.648 290.235 34.264L301.307 33.176V26.072C301.307 22.744 298.406 21.08 292.603 21.08H283.835C282.982 21.08 282.555 20.3333 282.555 18.84C282.555 17.3467 282.982 16.6 283.835 16.6H292.603C296.784 16.6 300.134 17.4107 302.651 19.032C305.168 20.6107 306.427 23.1707 306.427 26.712V45.592C306.427 48.3653 306.918 50.5627 307.899 52.184C308.198 52.696 308.347 53.016 308.347 53.144C308.347 53.656 307.942 54.2107 307.131 54.808C306.32 55.3627 305.638 55.64 305.083 55.64C304.144 55.64 303.27 54.7653 302.459 53.016C301.691 51.224 301.307 48.9627 301.307 46.232V37.656L290.619 38.744C288.315 39 286.822 39.512 286.139 40.28C285.456 41.048 285.115 42.4133 285.115 44.376V44.888C285.115 46.936 285.456 48.3867 286.139 49.24C286.864 50.0933 288.358 50.52 290.619 50.52H298.107C298.96 50.52 299.387 51.2667 299.387 52.76C299.387 54.2533 298.96 55 298.107 55ZM325.598 18.072V47.512C325.598 48.8773 325.918 50.1573 326.558 51.352C327.198 52.504 327.518 53.1013 327.518 53.144C327.518 53.656 327.112 54.2107 326.302 54.808C325.491 55.3627 324.808 55.64 324.254 55.64C323.358 55.64 322.504 54.872 321.694 53.336C320.883 51.7573 320.478 50.0293 320.478 48.152V18.072C320.478 17.0907 321.331 16.6 323.038 16.6C324.744 16.6 325.598 17.0907 325.598 18.072ZM318.046 12.12L317.598 12.312C317.214 12.312 316.766 11.9493 316.254 11.224C315.784 10.4987 315.549 9.944 315.549 9.56C315.549 9.13333 315.699 8.792 315.998 8.536L326.814 1.112C327.027 0.941331 327.368 0.855999 327.838 0.855999C328.307 0.855999 328.883 1.38933 329.566 2.456C330.248 3.48 330.59 4.35466 330.59 5.08C330.59 5.76266 330.355 6.232 329.885 6.488L318.046 12.12Z" fill="#00875F"/>
</svg>
